<svg id="Слой_1" data-name="Слой 1" xmlns="http://www.w3.org/2000/svg" xmlns:xlink="http://www.w3.org/1999/xlink" viewBox="0 0 350 200"><defs><style>.cls-1{fill:#e2b9a3;}.cls-2{fill:#1c1714;}.cls-3{fill:#f4f2ed;}.cls-4{fill:#3c3b3d;}.cls-5{fill:#eaebed;}.cls-6{fill:#c01626;}.cls-7{fill:#d4d3d2;}.cls-8{fill:url(#linear-gradient);}.cls-9{fill:#4e1e05;}.cls-10{fill:#e8b79d;}.cls-11{fill:#111;}.cls-12{fill:#fff;}.cls-13{fill:#a27b63;}.cls-14{fill:url(#radial-gradient);}.cls-15{fill:url(#linear-gradient-2);}.cls-16{fill:#f7c2a0;}.cls-17{fill:url(#linear-gradient-3);}</style><linearGradient id="linear-gradient" x1="43.61" y1="48.02" x2="120.95" y2="48.02" gradientUnits="userSpaceOnUse"><stop offset="0" stop-color="#ffdabc"/><stop offset="0.27" stop-color="#fed7b8"/><stop offset="0.52" stop-color="#facfad"/><stop offset="0.75" stop-color="#f3c19b"/><stop offset="0.98" stop-color="#eaae81"/><stop offset="1" stop-color="#e9ac7f"/></linearGradient><radialGradient id="radial-gradient" cx="-362.24" cy="2277.3" r="9.76" gradientTransform="matrix(0.93, 0, 0, -0.23, 406.06, 591.76)" gradientUnits="userSpaceOnUse"><stop offset="0" stop-color="#4c0807"/><stop offset="1" stop-color="#220606"/></radialGradient><linearGradient id="linear-gradient-2" x1="-247.44" y1="129.2" x2="-243.66" y2="139.39" gradientTransform="matrix(0.91, 0.18, 0.18, -0.91, 393.93, 303.83)" gradientUnits="userSpaceOnUse"><stop offset="0" stop-color="#f9ceb1"/><stop offset="1" stop-color="#f6c19c"/></linearGradient><linearGradient id="linear-gradient-3" x1="-729.23" y1="37.93" x2="-725.46" y2="48.11" gradientTransform="matrix(-0.91, 0.18, -0.18, -0.91, -352.39, 303.83)" xlink:href="#linear-gradient-2"/></defs><title>Монтажная область 1</title><path class="cls-1" d="M85,81.54c-.92,2.31,2.41,14,5.35,14.58.06-.06-12.25,2.47-17.43,1.62S65.45,95,65.45,95c2.6-4.55,3.94-8.27,3.87-13.19Z"/><path class="cls-2" d="M104.53,135.79s-11.8-.1-24.93-.11v-.08c-14.42.18-28.32.5-28.32.5-.12,1.25,2,10.78,7.5,14.27L60.7,193l7.56.16s3-27.43,6.58-38.75c.68-1.91,1-3.48,2.51-3.57,1.69.09,1.69,1.48,2.73,3.59,3.68,11.27,8,38.66,8,38.66l7.56-.27.44-42.59C101.55,146.61,104.67,137,104.53,135.79Z"/><path d="M79.6,135.68v-.08c-14.42.18-28.32.5-28.32.5a22.84,22.84,0,0,0,.75,4.37h51.12a7.9,7.9,0,0,0,1.38-4.68S92.73,135.69,79.6,135.68Z"/><path id="rect23" class="cls-3" d="M81.82,136.57H73.43v4.76h8.39Z"/><path id="path29" d="M95,186.08c-5.1,0-9.23,3.48-9.23,7.77V194h18.45v-.19c0-4.29-4.13-7.77-9.22-7.77Z"/><path id="path31" d="M62,186.21c-5.09,0-9.22,3.48-9.22,7.77v.2H71.2V194c0-4.29-4.13-7.77-9.23-7.77Z"/><path id="path161" class="cls-4" d="M101.35,190.09c-.7-1-1.8-1.47-4-1.81-.42-.07-.6-.67-.06-.63,4.62.31,4.25,2.78,4,2.44Z"/><path id="path163" class="cls-4" d="M68.9,190.82c-.7-1-1.8-1.48-4-1.81-.42-.07-.6-.67-.06-.63,4.62.31,4.25,2.78,4,2.44Z"/><path id="path25" class="cls-5" d="M108.85,87.92c-.13,1.36,2.15,43-2.67,48.65-2.15,3-36.58,2.13-53.25,2.22-3.67,0-5.39-5.74-5.45-10.07L45.6,89.54c2.86-2.13,14.07-3.32,26.34-3.71,1.53,0-2.27,3.89,4.61,3.89,5.81,0,3.6-4,5.37-4C94.3,85.71,105.75,86.5,108.85,87.92Z"/><path class="cls-6" d="M81.8,97.92l1.5-4.83a15.45,15.45,0,0,1,.12-2.43C81.53,89,79.81,87.5,79.81,87.5l-3.31-.11-3.31.11S71.53,89,69.68,90.7A30.72,30.72,0,0,1,70,94.16l1.17,3.76,1.35,2.49-2.38,25.35s5.24,9.6,6.46,11.35c1.21-1.75,6.45-11.35,6.45-11.35l-2.63-25.35Z"/><path class="cls-7" d="M74.75,85.71c-.17.31-5.44,12-5.61,11.61s-6.91-9.43-6.91-9.43,4-4.58,4-4.57S74.75,85.71,74.75,85.71Z"/><path class="cls-7" d="M78.34,85.71c.17.31,5.45,12,5.62,11.61s6.9-9.43,6.9-9.43-4-4.58-4-4.57S78.34,85.71,78.34,85.71Z"/><path id="path13-5-5-34" class="cls-8" d="M45.06,32.32c-.05,3.68,2.34,9.41.2,15.45-1.72,8.65-4.2,17.89,5,28C58,85.37,83.86,87.41,99.57,76.81a20.57,20.57,0,0,0,10.42-18c13.58,3.47,12.37-13.65,7.9-15.11a6.51,6.51,0,0,0-5.73.79s2-18.25-1-23.32c-16-10.94-34.6-9.34-52.86-8.33C58.27,12.86,45.21,22.73,45.06,32.32Z"/><path id="polygon37-1" class="cls-9" d="M74.55,42.25c6.16-1.55,11.77-2.09,15.73-1,2.15.16,2.28-3.1-.34-3.57a34,34,0,0,0-15.54,1.2C71.66,39.68,71.62,43,74.55,42.25Z"/><path id="polygon37-1-2" data-name="polygon37-1" class="cls-9" d="M62.54,42.13c-5.81-1.48-11.08-2-14.78-.83-2,.18-2.19-3.08.27-3.58a30.08,30.08,0,0,1,14.59,1C65.21,39.53,65.29,42.83,62.54,42.13Z"/><path id="path41-1" class="cls-10" d="M63.72,56.52l5.61,3.74a36.9,36.9,0,0,1-4.58-.53A25,25,0,0,1,62,56.38c4.46-2.31,4.38-7.75,3-11.5C67.78,49.76,67,52.85,63.72,56.52Z"/><path id="path33-1-5" class="cls-10" d="M80.84,52.55a4.42,4.42,0,1,1,4.33-4.42A4.38,4.38,0,0,1,80.84,52.55Z"/><path id="path33-2" d="M80.75,51.69a3.9,3.9,0,1,1,4-3.9A4,4,0,0,1,80.75,51.69Z"/><path id="path6193-7" class="cls-11" d="M77.51,47.82a3,3,0,1,0,3-2.89A2.94,2.94,0,0,0,77.51,47.82Z"/><path id="path49-6" class="cls-12" d="M79.7,48.05a1.23,1.23,0,1,1,1.15-1.23A1.19,1.19,0,0,1,79.7,48.05Z"/><path id="path57-1" class="cls-13" d="M118.1,49.38a6.2,6.2,0,0,1-2.88,7.34c-2,1.16-3.71,1-3.4-.38s3.47-2.69,2.65-4-2.11-.53-2.48-1.55C111.4,49.22,115.81,41.51,118.1,49.38Z"/><path id="path19-2" class="cls-9" d="M104.42,58.07c2.72,1.49,4.38-4.12,4.38-4.12s2.21-8.34,2.78-9a6.39,6.39,0,0,1,3.34-1.51c-.34-1.66,4.47-22.19-3.14-24.76-.48-2.14,0-3.05-4.48-6.87C90.49-2.53,55.05,14.52,37.75,6,40,39.28,69.52,26.81,89.35,24.35,98.92,23.16,101.13,26,103,31c3.26,7.29,1.42,18.85.09,23.63A3,3,0,0,0,104.42,58.07Z"/><path id="path33-1-4-2" class="cls-10" d="M54.37,52.15a4.41,4.41,0,1,1,4.33-4.41A4.38,4.38,0,0,1,54.37,52.15Z"/><path id="path33-0-2" d="M54.28,51.3a3.9,3.9,0,1,1,4-3.9A4,4,0,0,1,54.28,51.3Z"/><path id="path6193-9-1" class="cls-11" d="M51,47.43a3,3,0,1,0,3-2.89A2.94,2.94,0,0,0,51,47.43Z"/><path id="path49-4-6" class="cls-12" d="M53.22,47.66a1.23,1.23,0,1,1,1.16-1.23A1.19,1.19,0,0,1,53.22,47.66Z"/><path class="cls-9" d="M104.05,23.93c-1.22-.85-5.71-1.67-14.37,4.12-8.31,5.57-22.06,3.54-21.38,3.68s6-3.25,5.3-3-9.2,4.36-17.89,3C41,29.47,37.75,17,37.75,17s3.9,3.26,14,2S68,13.49,82.62,14.76,104.05,23.93,104.05,23.93Z"/><path id="path607" class="cls-14" d="M60.29,66c5.06,4.63,15.69,3.82,18.14.36C76.38,71.44,64.16,72.33,60.29,66Z"/><path id="path11" class="cls-15" d="M192,128.53c-.61.58-4.5,3.26-5.77,5.4s-1.63,5.51-.34,7.16,6.74,2.87,8.78,2.84,2.16-.63,2.16-.63,1.43,1.34,2.67.74,1.43-2.32,1.15-5.54,1.08-3.72-1.49-5.69a55.16,55.16,0,0,0-7.16-4.28Z"/><path id="path155" class="cls-5" d="M218.07,91.15c-11.69,14.07-19,23.43-28.23,39.47,1.08.21,11.07,4.5,11.07,4.5,7.1-13.36,13-19.24,20.52-30.6Z"/><path id="path11-34" class="cls-16" d="M200,135.11s.15,4.43.26,6.15-.45,2.67-1.46,2.56a2.24,2.24,0,0,1-1.81-1.07c-.12-.35-.44-2.45-.62-2.15s.81,2-.24,2.75a3,3,0,0,1-2.6.22c-.31-.08-.42-2.94-.54-2.78s.33,2.58-.17,2.7a5.44,5.44,0,0,1-2.23-.39c-.23-.47-.53-2.83-.64-2.72s.42,2.09.15,2.33-1.87-.23-2.18-.5a12.06,12.06,0,0,1-.5-3.2c-.16.31.13,2.77-.14,2.81a5.28,5.28,0,0,1-1.09-.4c1.37,1.18,4.72,2.1,7,2.41a9.27,9.27,0,0,0,1.45.11c2,0,2.17-.64,2.17-.64s1.43,1.34,2.67.74,1.42-2.32,1.14-5.54a17.57,17.57,0,0,1,.12-3.11l-.72-.28Z"/><path id="path5001-9-5-4" class="cls-7" d="M203.31,132.56c.82-.91-11.54-6.18-11.54-6.18a46.62,46.62,0,0,0-2.82,4.54c-.33,1.48,11.78,5.82,11.78,5.82Z"/><path id="path11-2" data-name="path11" class="cls-17" d="M305.34,125.89c.61.58,4.5,3.26,5.76,5.4s1.64,5.51.35,7.16-6.74,2.87-8.78,2.84-2.16-.63-2.16-.63-1.43,1.34-2.67.74-1.43-2.32-1.15-5.54-1.08-3.72,1.48-5.69a55.71,55.71,0,0,1,7.17-4.28Z"/><path id="path155-2" data-name="path155" class="cls-5" d="M279.24,88.51c11.68,14.07,19,23.43,28.23,39.47-1.08.22-11.07,4.5-11.07,4.5-7.1-13.36-13.84-19.25-21.37-30.61Z"/><path id="path11-34-2" data-name="path11-34" class="cls-16" d="M297.3,132.47s-.15,4.43-.27,6.15.46,2.67,1.47,2.56a2.24,2.24,0,0,0,1.81-1.07c.11-.35.44-2.45.61-2.15s-.8,2,.25,2.75a3,3,0,0,0,2.6.22c.31-.08.42-2.94.53-2.78s-.32,2.58.18,2.7a5.44,5.44,0,0,0,2.23-.39c.23-.47.53-2.83.64-2.72s-.42,2.09-.15,2.33,1.86-.23,2.18-.5a12.06,12.06,0,0,0,.5-3.2c.16.31-.13,2.77.14,2.81a5.28,5.28,0,0,0,1.09-.4c-1.37,1.18-4.72,2.1-7,2.41a9.07,9.07,0,0,1-1.44.11c-2,0-2.18-.64-2.18-.64s-1.42,1.34-2.66.74-1.43-2.32-1.14-5.54a16.44,16.44,0,0,0-.13-3.11l.73-.28Z"/><path id="path5001-9-5-4-2" data-name="path5001-9-5-4" class="cls-7" d="M294,129.92c-.82-.91,11.54-6.18,11.54-6.18a46.62,46.62,0,0,1,2.82,4.54c.33,1.48-11.79,5.82-11.79,5.82Z"/></svg>