<svg id="Слой_1" data-name="Слой 1" xmlns="http://www.w3.org/2000/svg" xmlns:xlink="http://www.w3.org/1999/xlink" viewBox="0 0 350 200"><defs><style>.cls-1{fill:url(#linear-gradient);}.cls-2{fill:url(#linear-gradient-2);}.cls-3{fill:url(#linear-gradient-3);}.cls-4{fill:url(#linear-gradient-4);}.cls-5{fill:#eaebed;}.cls-6{fill:#d9d8d7;}.cls-7{fill:url(#linear-gradient-5);}.cls-8{fill:url(#linear-gradient-6);}.cls-9{fill:url(#linear-gradient-7);}.cls-10{fill:url(#linear-gradient-8);}.cls-11{fill:#d4d3d2;}.cls-12{fill:#e2b9a3;}.cls-13{fill:#1c1714;}.cls-14{fill:#f4f2ed;}.cls-15{fill:#3c3b3d;}.cls-16{fill:#c01626;}.cls-17{fill:url(#linear-gradient-9);}.cls-18{fill:#e8b79d;}.cls-19{fill:#111;}.cls-20{fill:#fff;}.cls-21{fill:#4e1e05;}.cls-22{fill:#d29e73;}.cls-23{fill:url(#linear-gradient-10);}</style><linearGradient id="linear-gradient" x1="81.77" y1="402" x2="92.02" y2="402.07" gradientTransform="matrix(-0.31, -0.69, -0.61, 0.32, 406.38, 67.56)" gradientUnits="userSpaceOnUse"><stop offset="0" stop-color="#ffddc0"/><stop offset="1" stop-color="#ffd8b6"/></linearGradient><linearGradient id="linear-gradient-2" x1="95.01" y1="591.55" x2="95" y2="586.23" gradientTransform="matrix(-0.49, -0.3, -0.29, 0.49, 340.47, -127.66)" gradientUnits="userSpaceOnUse"><stop offset="0" stop-color="#ffddc0"/><stop offset="1" stop-color="#ffd3ae"/></linearGradient><linearGradient id="linear-gradient-3" x1="28.32" y1="480.49" x2="28.13" y2="483.5" gradientTransform="matrix(-0.35, -0.46, -0.45, 0.35, 351.19, -22.49)" xlink:href="#linear-gradient-2"/><linearGradient id="linear-gradient-4" x1="-62.43" y1="-165.11" x2="-82.82" y2="-178.87" gradientTransform="translate(63.34 -22.4) rotate(180) scale(0.93)" gradientUnits="userSpaceOnUse"><stop offset="0" stop-color="#ffddc0"/><stop offset="1" stop-color="#ffddc0"/></linearGradient><linearGradient id="linear-gradient-5" x1="80.27" y1="396.92" x2="90.51" y2="396.99" gradientTransform="matrix(0.31, -0.69, 0.61, 0.32, -52.08, 67.56)" xlink:href="#linear-gradient"/><linearGradient id="linear-gradient-6" x1="90.19" y1="587.4" x2="90.17" y2="582.08" gradientTransform="matrix(0.49, -0.3, 0.29, 0.49, 13.84, -127.66)" xlink:href="#linear-gradient-2"/><linearGradient id="linear-gradient-7" x1="25.29" y1="474.84" x2="25.1" y2="477.86" gradientTransform="matrix(0.35, -0.46, 0.45, 0.35, 3.12, -22.49)" xlink:href="#linear-gradient-2"/><linearGradient id="linear-gradient-8" x1="-66.28" y1="-164.49" x2="-86.67" y2="-178.26" gradientTransform="matrix(0.93, 0, 0, -0.93, 290.97, -22.4)" xlink:href="#linear-gradient-4"/><linearGradient id="linear-gradient-9" x1="131.54" y1="37.44" x2="228.84" y2="110.48" gradientTransform="translate(6.58 -40.5) rotate(5.49)" gradientUnits="userSpaceOnUse"><stop offset="0" stop-color="#ffdabc"/><stop offset="0.27" stop-color="#fed7b8"/><stop offset="0.52" stop-color="#facfad"/><stop offset="0.75" stop-color="#f3c19b"/><stop offset="0.98" stop-color="#eaae81"/><stop offset="1" stop-color="#e9ac7f"/></linearGradient><linearGradient id="linear-gradient-10" x1="-209.5" y1="124.58" x2="-194.22" y2="124.58" gradientTransform="matrix(1.13, 0.11, 0.07, -0.74, 390.1, 185.53)" gradientUnits="userSpaceOnUse"><stop offset="0" stop-color="#4c0807"/><stop offset="1" stop-color="#220606"/></linearGradient></defs><title>Монтажная область 1</title><path id="rect3838-8-8-8-8" class="cls-1" d="M132.54,139.28l-3.18-7.06a1.7,1.7,0,0,1,.76-2.18l.63-.32a1.5,1.5,0,0,1,2.07.72L136,137.5a1.7,1.7,0,0,1-.77,2.19l-.62.32A1.5,1.5,0,0,1,132.54,139.28Z"/><path id="rect3838-8-8" class="cls-2" d="M124.37,134.89l-4.91-3a1.32,1.32,0,0,1-.45-1.81l.29-.5a1.29,1.29,0,0,1,1.79-.44l4.91,3a1.33,1.33,0,0,1,.45,1.81l-.29.5A1.29,1.29,0,0,1,124.37,134.89Z"/><path id="rect3838-8-8-8" class="cls-3" d="M125.53,136.09l-3.47-4.6a1.34,1.34,0,0,1,.24-1.86l.46-.35a1.28,1.28,0,0,1,1.82.24l3.48,4.6a1.34,1.34,0,0,1-.25,1.85l-.45.36A1.3,1.3,0,0,1,125.53,136.09Z"/><path id="path107-1" class="cls-4" d="M134.75,143.7c-3.59,1.25-3.29-2.77-8.72-5.48-.56-.35-1.69-.77-3.92-1.81-1.47-.88-3.54-2.42-4.81-3.06-.4-4.45,7.29-.47,12.63,1.45,6.89,1,8.58,1.45,9,5.66C139.17,142.26,136.21,142.56,134.75,143.7Z"/><path id="path103-7" class="cls-5" d="M155,137.56l-12.09,13.6c-1.59-5.75-1.86-5.26-4.6-12.14a11.69,11.69,0,0,1-6.7,3c.54,4.82,3.9,22.43,11.09,21.79,7.44-.66,10.54-7.67,13.79-10.75Z"/><path id="path5001" class="cls-6" d="M139.06,138.3c-.37.16-9,4.22-9,4.22a26.64,26.64,0,0,0,1.47,3.52c.17-.08,8.85-3.52,8.85-3.52Z"/><path id="rect3838-8-8-8-8-2" data-name="rect3838-8-8-8-8" class="cls-7" d="M218.19,138.71l3.17-7.06a1.69,1.69,0,0,0-.76-2.18l-.62-.32a1.5,1.5,0,0,0-2.08.72l-3.17,7.06a1.7,1.7,0,0,0,.76,2.18l.62.32A1.5,1.5,0,0,0,218.19,138.71Z"/><path id="rect3838-8-8-2" data-name="rect3838-8-8" class="cls-8" d="M226.35,134.32l4.92-3a1.33,1.33,0,0,0,.45-1.81l-.3-.5a1.28,1.28,0,0,0-1.78-.44l-4.92,3a1.34,1.34,0,0,0-.45,1.82l.29.5A1.29,1.29,0,0,0,226.35,134.32Z"/><path id="rect3838-8-8-8-2" data-name="rect3838-8-8-8" class="cls-9" d="M225.19,135.51l3.48-4.6a1.34,1.34,0,0,0-.25-1.85l-.45-.35a1.29,1.29,0,0,0-1.83.24l-3.47,4.6a1.33,1.33,0,0,0,.24,1.85l.46.36A1.29,1.29,0,0,0,225.19,135.51Z"/><path id="path107-1-2" data-name="path107-1" class="cls-10" d="M216,143.13c3.59,1.25,3.29-2.77,8.72-5.48.56-.35,1.69-.77,3.93-1.81,1.46-.88,3.53-2.43,4.81-3.06.4-4.45-7.3-.47-12.64,1.45-6.89,1-8.58,1.44-9,5.65C211.56,141.69,214.51,142,216,143.13Z"/><path id="path103-7-2" data-name="path103-7" class="cls-5" d="M195.28,137l12.08,13.59c1.6-5.75,1.86-5.26,4.6-12.14a11.66,11.66,0,0,0,6.7,3c-.53,4.82-3.89,22.43-11.08,21.79-7.45-.66-10.55-7.67-13.79-10.75Z"/><path id="path5001-2" data-name="path5001" class="cls-11" d="M211.24,137.68l9,4.22a25.4,25.4,0,0,1-1.48,3.52c-.16-.08-8.85-3.52-8.85-3.52Z"/><path class="cls-12" d="M183.43,85.34c-.92,2.32,2.41,14,5.35,14.58.06-.06-12.25,2.48-17.43,1.62s-7.5-2.73-7.5-2.73c2.6-4.54,3.94-8.26,3.87-13.18Z"/><path class="cls-13" d="M202.93,139.6s-11.8-.11-24.93-.11v-.08c-14.42.18-28.32.49-28.32.49-.12,1.26,2,10.79,7.5,14.28l1.92,42.58,7.56.16s3-27.43,6.58-38.76c.68-1.9,1-3.47,2.51-3.56,1.69.09,1.69,1.48,2.73,3.58,3.68,11.28,8,38.66,8,38.66l7.56-.26.44-42.6C200,150.41,203.07,140.85,202.93,139.6Z"/><path d="M178,139.49v-.08c-14.42.18-28.32.49-28.32.49a22.88,22.88,0,0,0,.75,4.38h51.12a7.91,7.91,0,0,0,1.38-4.68S191.13,139.49,178,139.49Z"/><path id="rect23" class="cls-14" d="M180.22,140.38h-8.39v4.76h8.39Z"/><path id="path29" d="M193.43,189.89c-5.1,0-9.23,3.47-9.23,7.76a1.34,1.34,0,0,0,0,.2h18.44v-.2c0-4.29-4.13-7.76-9.22-7.76Z"/><path id="path31" d="M160.38,190c-5.1,0-9.23,3.48-9.23,7.76v.2H169.6v-.2c0-4.29-4.13-7.76-9.22-7.76Z"/><path id="path161" class="cls-15" d="M199.75,193.89c-.7-1-1.8-1.47-4-1.81-.42-.06-.6-.66-.06-.62,4.62.31,4.26,2.77,4,2.43Z"/><path id="path163" class="cls-15" d="M167.3,194.62c-.7-1-1.8-1.47-4-1.81-.42-.06-.6-.66-.06-.63,4.62.32,4.25,2.78,4,2.44Z"/><path id="path25" class="cls-5" d="M207.25,91.73c-.13,1.35,2.16,43-2.67,48.65-2.15,3-36.58,2.12-53.25,2.21-3.67,0-5.39-5.73-5.45-10.06L144,93.34c2.86-2.13,14.08-3.32,26.34-3.71,1.53,0-2.27,3.9,4.61,3.9,5.81,0,3.6-4,5.37-4C192.7,89.51,204.15,90.31,207.25,91.73Z"/><path class="cls-16" d="M180.2,101.73l1.5-4.84a15.27,15.27,0,0,1,.12-2.42c-1.89-1.68-3.61-3.16-3.61-3.16l-3.31-.12-3.31.12s-1.66,1.49-3.51,3.19a30.89,30.89,0,0,1,.35,3.47l1.17,3.76,1.35,2.49-2.38,25.35s5.24,9.59,6.46,11.34c1.21-1.75,6.45-11.34,6.45-11.34l-2.63-25.35Z"/><path class="cls-11" d="M173.15,89.51c-.16.32-5.44,12-5.61,11.62s-6.91-9.43-6.91-9.43,4-4.59,4-4.58Z"/><path class="cls-11" d="M176.74,89.51c.17.32,5.45,12,5.62,11.62s6.9-9.43,6.9-9.43-3.95-4.59-4-4.58Z"/><path id="path13-5-5-34" class="cls-17" d="M146.49,32c-.41,3.65,1.43,9.6-1.28,15.4-2.53,8.44-5.89,17.41,2.33,28.32,6.73,10.33,32.3,14.83,49,5.78a20.58,20.58,0,0,0,12.09-16.91c13.19,4.76,13.62-12.4,9.31-14.28a6.51,6.51,0,0,0-5.78.24s3.69-18,1.2-23.31c-14.85-12.42-33.55-12.6-51.82-13.35C161.5,13.88,147.56,22.46,146.49,32Z"/><path id="path33-1-5" class="cls-18" d="M183.57,54.06a4.42,4.42,0,1,1,4.74-4A4.39,4.39,0,0,1,183.57,54.06Z"/><path id="path33-2" d="M183.57,53.21a3.9,3.9,0,1,1,4.34-3.51A4,4,0,0,1,183.57,53.21Z"/><path id="path6193-7" class="cls-19" d="M180.7,49a3,3,0,1,0,3.24-2.6A2.94,2.94,0,0,0,180.7,49Z"/><path id="path49-6" class="cls-20" d="M182.86,49.48a1.23,1.23,0,1,1,1.27-1.12A1.19,1.19,0,0,1,182.86,49.48Z"/><path id="polygon37-1" class="cls-21" d="M173.05,45.9c6.34-.51,12-.12,15.69,1.58,2.1.51,2.77-2.68.26-3.58a34,34,0,0,0-15.53-1.36C170.63,42.9,170.05,46.14,173.05,45.9Z"/><path id="path41-1" class="cls-18" d="M162.75,57.87,168,62.12a36.25,36.25,0,0,1-4.51-1,25.46,25.46,0,0,1-2.4-3.6c4.66-1.87,5.11-7.3,4.09-11.16C167.44,51.53,166.35,54.53,162.75,57.87Z"/><path id="path57-1" class="cls-22" d="M217.57,56A6.21,6.21,0,0,1,214,63c-2.13.95-3.79.62-3.34-.71s3.71-2.34,3-3.68-2.06-.73-2.33-1.78C210.91,55.16,216,47.91,217.57,56Z"/><path id="path19-2" class="cls-21" d="M203.11,63.3c2.56,1.74,4.75-3.68,4.75-3.68s3-8.1,3.64-8.69A6.46,6.46,0,0,1,215,49.75c-.19-1.68,6.56-21.67-.77-24.94-.26-2.19.29-3-3.8-7.27C195,1.65,158.14,15.22,141.72,5.12c-1,33.31,29.65,23.73,49.62,23.17,9.64-.27,11.56,2.82,13,7.94,2.55,7.57-.39,18.9-2.17,23.53A3,3,0,0,0,203.11,63.3Z"/><path id="path33-1-4-2" class="cls-18" d="M157.51,51.6a4.42,4.42,0,1,1,4.73-4A4.38,4.38,0,0,1,157.51,51.6Z"/><path id="path33-0-2" d="M157.5,50.74a3.9,3.9,0,1,1,4.35-3.5A4,4,0,0,1,157.5,50.74Z"/><path id="path6193-9-1" class="cls-19" d="M154.64,46.58a3,3,0,1,0,3.24-2.6A2.94,2.94,0,0,0,154.64,46.58Z"/><path id="path49-4-6" class="cls-20" d="M156.8,47a1.23,1.23,0,0,1,.24-2.45A1.23,1.23,0,0,1,156.8,47Z"/><path class="cls-21" d="M206,29.28c-1.13-1-5.52-2.21-14.7,2.73-8.8,4.74-22.29,1.41-21.63,1.62S176,31,175.23,31.18s-9.57,3.45-18.09,1.28c-14.45-3.7-16.47-16.4-16.47-16.4s3.58,3.62,13.8,3.32,16.64-3.94,31.09-1.28S206,29.28,206,29.28Z"/><path id="path509" class="cls-23" d="M179.48,75.15c-3.62-5.52-12.74-10.91-17.06-3.54C163.18,63.23,178.92,67.83,179.48,75.15Z"/><path id="polygon37-1-2" data-name="polygon37-1" class="cls-21" d="M162.5,45.1c-5.64-2-10.84-3-14.63-2.24-2,0-1.88-3.27.61-3.54a30.12,30.12,0,0,1,14.43,2.42C165.41,42.77,165.18,46.06,162.5,45.1Z"/></svg>